<?xml version="1.0" encoding="UTF-8"?>
<svg width="236px" height="279px" viewBox="0 0 236 279" version="1.1" xmlns="http://www.w3.org/2000/svg" xmlns:xlink="http://www.w3.org/1999/xlink">
    <!-- Generator: Sketch 53.2 (72643) - https://sketchapp.com -->
    <title>logo</title>
    <desc>Created with Sketch.</desc>
    <g id="Page-1" stroke="none" stroke-width="1" fill="none" fill-rule="evenodd">
        <g id="logo" transform="translate(-33.000000, -52.000000)" fill="#E7E7E7" fill-rule="nonzero">
            <path d="M196.373,73.308 C207.343,61.564 214.763,45.259 212.732,29 C196.928,29.564 177.774,38.277 166.43,50.02 C156.261,60.416 147.358,77.031 149.734,92.971 C167.369,94.164 185.385,85.033 196.373,73.308 Z M230.03,185.593 C229.693,149.142 258.889,131.635 260.182,130.789 C243.768,106.036 218.205,102.649 209.101,102.267 C187.334,99.982 166.659,115.449 155.608,115.449 C144.602,115.449 127.578,102.567 109.525,102.913 C85.792,103.304 63.924,117.124 51.735,139.027 C27.081,183.09 45.416,248.363 69.44,284.104 C81.184,301.601 95.167,321.229 113.529,320.519 C131.254,319.809 137.936,308.73 159.321,308.73 C180.715,308.73 186.705,320.519 205.422,320.164 C224.467,319.809 236.52,302.33 248.164,284.778 C261.637,264.486 267.191,244.84 267.509,243.848 C267.1,243.611 230.421,229.182 230.03,185.593 Z" id="Shape" transform="translate(153.768855, 174.768855) rotate(18.000000) translate(-153.768855, -174.768855) "></path>
        </g>
    </g>
</svg>